<svg xmlns="http://www.w3.org/2000/svg" viewBox="0 0 506.39 76.82"><defs><style>.cls-1{fill:#231f20;}</style></defs><title>Horizontal</title><g id="Layer_2" data-name="Layer 2"><g id="Layer_7" data-name="Layer 7"><path class="cls-1" d="M106.95,25.79h2.67V48.71h14.12V51H106.95Z"/><path class="cls-1" d="M161.2,48.42c-1.82-1.87-2.74-4.6-2.74-8.17V25.79h2.67V40.14q0,4.39,2,6.56a8.74,8.74,0,0,0,11.49,0q2-2.16,2-6.56V25.79h2.6V40.24c0,3.58-.91,6.31-2.72,8.17s-4.35,2.81-7.62,2.81A10.16,10.16,0,0,1,161.2,48.42Z"/><path class="cls-1" d="M221.07,25.79h2.67V51h-2.67Z"/><path class="cls-1" d="M285.45,48.71V51H264.77V49.18L281.49,28.1H265V25.79h20v1.85L268.34,48.71Z"/><path class="cls-1" d="M329.29,30.48v6.66H341v4.69H329.29V51h-5.83V25.79h19.06v4.69Z"/><path class="cls-1" d="M379.45,49.76a12.57,12.57,0,0,1-6.72-11.35,12.81,12.81,0,0,1,1.78-6.69,12.57,12.57,0,0,1,4.94-4.66,15.63,15.63,0,0,1,14.14,0,12.86,12.86,0,0,1,0,22.7,15.63,15.63,0,0,1-14.14,0Zm11.11-4.31a7.36,7.36,0,0,0,2.83-2.87,9.07,9.07,0,0,0,0-8.36,7.42,7.42,0,0,0-2.83-2.87,8.49,8.49,0,0,0-8.07,0,7.47,7.47,0,0,0-2.82,2.87,9,9,0,0,0,0,8.36,7.4,7.4,0,0,0,2.82,2.87,8.41,8.41,0,0,0,8.07,0Z"/><path class="cls-1" d="M435.33,50.63a13.35,13.35,0,0,1-4.48-2.1l2-4.4A13.62,13.62,0,0,0,436.68,46a14.64,14.64,0,0,0,4.46.72,7.13,7.13,0,0,0,3.68-.74,2.23,2.23,0,0,0,1.19-2,1.87,1.87,0,0,0-.7-1.49,5.32,5.32,0,0,0-1.8-.95c-.73-.24-1.72-.51-3-.79a41.43,41.43,0,0,1-4.72-1.37,7.62,7.62,0,0,1-3.15-2.2,5.94,5.94,0,0,1-1.31-4,7,7,0,0,1,1.19-4,8.06,8.06,0,0,1,3.59-2.82,14.55,14.55,0,0,1,5.85-1,19.53,19.53,0,0,1,4.72.57,14.13,14.13,0,0,1,4,1.66L448.93,32a14.07,14.07,0,0,0-7-2,6.58,6.58,0,0,0-3.62.79,2.41,2.41,0,0,0-1.18,2.08,2,2,0,0,0,1.36,1.93,21,21,0,0,0,4.12,1.25,41.43,41.43,0,0,1,4.72,1.37,7.77,7.77,0,0,1,3.14,2.16,5.78,5.78,0,0,1,1.32,4,6.88,6.88,0,0,1-1.21,3.94A8.1,8.1,0,0,1,447,50.41a14.87,14.87,0,0,1-5.88,1A20.47,20.47,0,0,1,435.33,50.63Z"/><path class="cls-1" d="M489,49.77a12.5,12.5,0,0,1-4.91-4.64,13.56,13.56,0,0,1,0-13.44A12.53,12.53,0,0,1,489,27a14.57,14.57,0,0,1,7-1.67,14.79,14.79,0,0,1,5.93,1.14,11.9,11.9,0,0,1,4.45,3.32l-3.74,3.45a8.07,8.07,0,0,0-6.35-2.95,8.46,8.46,0,0,0-4.17,1,7.36,7.36,0,0,0-2.87,2.87,9,9,0,0,0,0,8.36,7.3,7.3,0,0,0,2.87,2.87,8.47,8.47,0,0,0,4.17,1,8,8,0,0,0,6.35-3l3.74,3.45a11.69,11.69,0,0,1-4.46,3.35A14.79,14.79,0,0,1,496,51.45,14.39,14.39,0,0,1,489,49.77Z"/><rect class="cls-1" x="-3.32" y="25.46" width="34.57" height="4.94" transform="translate(-15.66 18.06) rotate(-45)"/><polygon class="cls-1" points="62.85 24.44 59.36 20.95 20.95 59.36 20.95 59.36 20.95 59.36 38.41 76.82 41.9 73.33 27.93 59.36 62.85 24.44"/><polygon class="cls-1" points="69.83 31.43 66.34 27.93 38.41 55.87 34.92 59.36 38.41 62.85 45.39 69.83 48.88 66.34 41.9 59.36 69.83 31.43"/><rect class="cls-1" x="45.57" y="46.42" width="34.57" height="4.94" transform="translate(-16.16 58.76) rotate(-45)"/><polygon class="cls-1" points="31.43 6.98 27.93 10.47 34.92 17.46 6.98 45.39 10.47 48.88 41.9 17.46 31.43 6.98"/><polygon class="cls-1" points="52.38 20.95 55.87 17.46 38.41 0 34.92 3.49 48.88 17.46 13.97 52.38 17.46 55.87 52.38 20.95 52.38 20.95"/></g></g></svg>