<?xml version="1.0" encoding="UTF-8"?>
<!-- Generated by Pixelmator Pro 3.2.1 -->
<svg width="10240" height="7238" viewBox="0 0 10240 7238" xmlns="http://www.w3.org/2000/svg" xmlns:xlink="http://www.w3.org/1999/xlink">
    <g id="Agrupar">
        <path id="Traado" fill="#000000" stroke="none" d="M 7944 0.266602 C 7851.333496 16.266602 7776.933105 66.799805 7698 167.333496 C 7662.799805 212.266602 7618.266602 280.133301 7497.333496 473.333496 C 7364.399902 685.600098 7287.333496 814.399902 7118 1107.333496 C 7066.399902 1196.533203 7022.533203 1271.733398 6986.799805 1332 L 6977.333496 1348 L 6924.399902 1355.600098 C 6488.666504 1418.399902 6122.399902 1476.399902 5687.333496 1551.466797 C 5345.066895 1610.533203 4822.933105 1704.933105 4762 1718.799805 C 4731.466797 1725.733398 4690.933105 1738.266602 4663.733398 1749.333496 C 4656.799805 1752.133301 4654.666504 1753.600098 4654.666504 1755.600098 C 4654.666504 1759.066895 4665.733398 1769.466797 4675.466797 1775.333496 L 4683.200195 1780 L 4698.533203 1779.600098 C 4720.666504 1779.066895 4756.133301 1776.933105 4780 1774.666504 C 4805.066895 1772.133301 4831.866699 1767.866699 4908 1754 C 5460 1653.466797 6099.466797 1554.133301 6766 1465.333496 C 6920.266602 1444.799805 6915.866699 1445.333496 6916.666504 1446.266602 C 6917.600098 1447.066895 6907.066895 1464 6821.733398 1600 C 6659.733398 1858.133301 6575.866699 1995.866699 6498.133301 2130.933105 C 6487.200195 2150 6485.200195 2152.666504 6463.066895 2176.266602 C 6292.533203 2358.266602 6093.333496 2558.666504 5895.333496 2747.333496 C 5704.399902 2929.333496 5528.266602 3090.399902 5127.333496 3449.333252 C 4979.466797 3581.733398 4801.466797 3741.600098 4777.466797 3763.466553 L 4763.333496 3776.266602 L 4739.333496 3752.800049 C 4686.799805 3701.333252 4635.466797 3663.866699 4572.666504 3631.199951 C 4505.600098 3596.399902 4425.866699 3571.199951 4367.866699 3566.533447 C 4361.733398 3566 4356 3565.333252 4355.066895 3564.800049 C 4354 3564.266602 4367.466797 3541.199951 4393.600098 3498.666748 C 4445.600098 3413.600098 4509.066895 3309.466553 4566.533203 3214.666748 C 4618 3129.466797 4615.866699 3134.266602 4608.533203 3120.666504 C 4603.466797 3111.333496 4586.266602 3094.266602 4571.200195 3083.600098 C 4564.666504 3078.933105 4552.799805 3071.866699 4544.666504 3068 C 4524.266602 3058.133301 4513.200195 3055.866699 4505.600098 3059.866699 C 4503.066895 3061.200195 4490 3080.666504 4463.066895 3122.933105 L 4424.133301 3184 L 4397.200195 3214 C 4345.733398 3271.199951 4258.799805 3355.866699 4203.333496 3402.666748 C 4106.799805 3484.266602 4037.600098 3534.133301 3936.666748 3594.93335 C 3886 3625.466553 3810.133301 3667.600098 3782 3680.800049 C 3770.399902 3686.266602 3748.800049 3694 3745.333252 3694 C 3743.466553 3694 3744.666748 3688.800049 3754 3656 C 3771.866699 3593.466553 3798.133301 3528.133301 3832.666748 3460 C 3883.866699 3359.199951 3944.666748 3273.06665 4024.266602 3188.533447 C 4039.333252 3172.533447 4041.333252 3169.866699 4041.333252 3165.733398 C 4041.333252 3156 4024.666748 3133.866699 4003.600098 3115.600098 C 3987.466553 3101.600098 3984.133301 3099.733398 3965.333252 3094 C 3957.600098 3091.600098 3950.800049 3089.200195 3950.266602 3088.666504 C 3949.733398 3088.133301 3950.800049 3085.866699 3952.666748 3083.600098 C 3956.133301 3079.466797 3956.133301 3076.666504 3952.800049 3076.666504 C 3952 3076.666504 3948.800049 3079.066895 3946 3082 C 3942.399902 3085.733398 3939.733398 3087.333496 3936.93335 3087.333496 C 3934.93335 3087.333496 3931.600098 3088.133301 3929.466553 3089.200195 C 3923.466553 3092.399902 3881.06665 3138 3855.466553 3168.93335 C 3842.266602 3184.93335 3824.93335 3200.533447 3775.333252 3240.800049 C 3600.800049 3382.666748 3501.333252 3456.93335 3363.733398 3548.399902 C 3338.533447 3565.06665 3306.266602 3586.133301 3292 3595.199951 C 3264 3613.06665 3236 3628.399902 3236 3626.133301 C 3236 3618.133301 3281.600098 3522.533447 3312.93335 3464.666748 C 3368.533447 3362.533447 3431.866699 3266.800049 3502.800049 3178 C 3514.266602 3163.600098 3524.133301 3150.533447 3524.533447 3148.93335 C 3525.199951 3146.93335 3524 3142.666748 3520.666748 3135.333496 C 3514.800049 3122.399902 3513.199951 3113.333496 3514.800049 3102.666504 C 3518.133301 3080.533203 3518.399902 3082.533203 3511.466553 3076 C 3504.533447 3069.600098 3495.06665 3065.333496 3490.399902 3066.399902 C 3488.666748 3066.799805 3482 3069.066895 3475.333252 3071.466797 L 3463.333252 3075.733398 L 3442.133301 3074.799805 L 3420.93335 3074 L 3414.800049 3080.399902 C 3390.533447 3105.600098 3324.800049 3192.133301 3287.466553 3247.866699 C 3271.199951 3272.399902 3271.06665 3272.533447 3251.866699 3288.800049 C 3241.333252 3297.866699 3212.533447 3322.800049 3187.866699 3344.133301 C 3084.133301 3434 2991.466553 3508.666748 2873.333252 3597.199951 C 2848.800049 3615.733398 2825.600098 3633.06665 2821.733398 3635.733398 L 2814.800049 3640.800049 L 2817.733398 3633.733398 C 2823.199951 3620.533447 2867.733398 3532.133301 2882 3506 C 2957.06665 3369.199951 3050.533447 3234.666748 3154.133301 3114.533203 C 3163.06665 3104.266602 3170.800049 3094.533203 3171.199951 3092.933105 C 3172.800049 3087.866699 3167.466553 3078.933105 3153.466553 3063.200195 C 3138.133301 3045.866699 3128.533447 3038.133301 3118 3034.133301 C 3113.866699 3032.533203 3107.466553 3029.733398 3103.733398 3027.866699 C 3093.199951 3022.533203 3082.93335 3019.333496 3076.399902 3019.333496 C 3069.06665 3019.333496 3066.133301 3022 3037.333252 3054 C 2967.199951 3132 2909.466553 3208.266602 2850.399902 3301.333252 C 2787.06665 3400.93335 2723.333252 3522.133301 2687.333252 3611.466553 C 2665.333252 3665.866699 2669.866699 3695.866699 2705.333252 3731.333252 C 2728 3754.133301 2755.866699 3771.733398 2778.800049 3778 C 2787.733398 3780.399902 2792.266602 3780.800049 2802 3780.399902 C 2817.199951 3779.600098 2826.133301 3776.266602 2839.733398 3766.133301 C 2862.666748 3748.93335 2936.399902 3677.866699 3068.93335 3545.199951 L 3178.533447 3435.466553 L 3172.666748 3447.733398 C 3169.600098 3454.533447 3161.466553 3471.600098 3154.666748 3485.866699 C 3126.266602 3546 3118.533447 3569.466553 3118.399902 3595.333252 C 3118.266602 3622.399902 3127.866699 3642.399902 3153.333252 3667.199951 C 3187.199951 3700.266602 3227.733398 3721.333252 3260.666748 3722.93335 C 3291.06665 3724.533447 3316.93335 3714.666748 3353.733398 3687.333252 C 3379.866699 3667.866699 3456.266602 3602.93335 3508 3556.133301 C 3584.666748 3486.666748 3678.800049 3394.399902 3731.866699 3336.666748 C 3750.800049 3316.133301 3752.666748 3314.133301 3751.733398 3316 C 3751.333252 3316.666748 3746.533447 3325.199951 3741.06665 3334.666748 C 3696.533447 3412.399902 3654 3514.666748 3634.93335 3590.666748 C 3622.533447 3639.600098 3622.266602 3655.199951 3633.333252 3679.06665 C 3648.133301 3710.666748 3685.466553 3745.600098 3724.533447 3764.133301 C 3762.399902 3782 3794 3780.399902 3838.266602 3758.266602 C 3858.266602 3748.133301 3873.733398 3737.866699 3915.333252 3707.199951 C 4037.199951 3617.199951 4154.799805 3515.733398 4287.866699 3385.333252 C 4300.666504 3372.93335 4310.133301 3364.266602 4308.933105 3366.266602 C 4307.733398 3368.266602 4284.933105 3404.533447 4258.266602 3446.93335 C 4153.866699 3613.06665 4160.666504 3601.866699 4160.799805 3608 C 4161.333496 3632.266602 4222.799805 3679.866699 4261.733398 3686.266602 C 4269.466797 3687.466553 4270.666504 3687.333252 4280 3683.600098 C 4324.533203 3666 4367.200195 3657.733398 4414 3657.733398 C 4502.533203 3657.733398 4583.866699 3688.666748 4654 3748.666748 C 4673.733398 3765.600098 4703.466797 3798.133301 4714 3814.399902 C 4716.399902 3818 4716.399902 3818.266602 4713.866699 3820.533447 C 4712.533203 3821.866699 4670.533203 3859.733398 4620.666504 3904.800049 C 4367.200195 4133.466797 4121.466797 4358.133301 3927.333252 4538.799805 L 3871.199951 4590.933594 L 3816 4587.200195 C 3548.666748 4569.333008 3326.266602 4562.399902 3054.666748 4563.733398 C 2908.533447 4564.399902 2874.93335 4565.066406 2772 4568.666992 C 2307.199951 4585.066406 1862.93335 4637.733398 1464.133301 4723.466797 C 1447.06665 4727.200195 1432.800049 4729.866699 1432.533325 4729.600098 C 1432.266724 4729.333008 1433.733276 4726.799805 1435.733276 4723.866699 C 1450 4704 1525.733276 4592.399902 1597.333374 4485.333008 C 1753.599976 4252 1798.400024 4188.933594 1939.199951 4004.666748 C 2141.733398 3739.600098 2153.600098 3722.93335 2322.800049 3469.333252 C 2474.133301 3242.399902 2541.466553 3145.06665 2786 2800 C 3073.333252 2394.533203 3176 2242.799805 3337.333252 1985.333496 L 3363.333252 1943.866699 L 3382.666748 1929.333496 C 3505.466553 1836.133301 3634.93335 1729.466797 3735.600098 1638.399902 C 3935.333252 1457.733398 4159.466797 1220.933105 4325.466797 1015.333496 C 4443.066895 869.600098 4519.333496 758 4622.266602 581.333496 C 4682.666504 477.600098 4709.733398 417.733398 4720.666504 364 C 4723.866699 348.533203 4724.133301 344.399902 4723.733398 326.666504 C 4723.200195 309.333496 4722.666504 305.200195 4719.466797 296 C 4712.266602 274.799805 4697.866699 256.133301 4676.666504 240.266602 C 4643.866699 215.866699 4611.600098 209.733398 4577.200195 221.333496 C 4547.600098 231.466797 4506.666504 262 4462.533203 306.933105 C 4438.933105 330.933105 4428.399902 342.933105 4361.200195 421.333496 C 4328.533203 459.466797 4281.200195 514.133301 4256 542.666504 C 3952.133301 886.533203 3695.600098 1209.200195 3469.733398 1531.466797 C 3390.533447 1644.399902 3354.533447 1698.399902 3194.800049 1944.266602 C 3170.399902 1981.866699 3142 2025.333496 3131.600098 2040.933105 L 3112.666748 2069.333496 L 3083.333252 2089.866699 C 2935.733398 2193.333496 2764.266602 2306.399902 2544.266602 2445.333496 C 2511.866699 2465.866699 2443.733398 2508.933105 2392.93335 2541.066895 C 2226.133301 2646.799805 2158.133301 2689.066895 2081.333252 2734.933105 C 1829.599976 2885.066895 1582.133301 3004.399902 1338.666626 3092.666504 C 1182.400024 3149.333252 992 3203.199951 782.666687 3250 C 759.599976 3255.06665 739.333313 3259.866699 737.733337 3260.666748 C 728.133362 3264.800049 743.333313 3285.866699 767.466675 3302 C 783.06665 3312.399902 786.266663 3313.06665 819.333313 3312.399902 C 845.200012 3312 848 3311.733398 850.666687 3309.333252 C 852.533325 3307.733398 853.200012 3305.866699 852.799988 3304 C 852.133362 3301.333252 854.400024 3300.666748 893.06665 3290.93335 C 1039.199951 3254.399902 1192.533325 3202.666748 1397.466675 3120.533203 C 1599.466675 3039.733398 1792.93335 2946.266602 2008.666626 2825.333496 C 2119.333252 2763.333496 2223.600098 2699.866699 2426.666748 2571.333496 C 2471.06665 2543.200195 2534.93335 2502.799805 2568.666748 2481.600098 C 2747.866699 2368.666504 2862 2294.799805 2981.333252 2214.799805 C 3046.399902 2171.066895 3043.866699 2172.666504 3041.866699 2175.466797 C 3041.06665 2176.533203 3030.266602 2192 3018 2210 C 2936.93335 2328 2837.06665 2467.866699 2663.333252 2706.666504 C 2406.666748 3059.333496 2311.733398 3194.133301 2198 3367.333252 C 2065.199951 3569.466553 2024.93335 3626 1872.400024 3825.600098 C 1699.733276 4051.333252 1600.666626 4189.066406 1442 4424 C 1328.133301 4592.666992 1255.06665 4696.933594 1195.866699 4775.466797 L 1184.266724 4790.799805 L 1165.866699 4795.866699 C 1102.400024 4813.066406 1009.733337 4840.133301 950.666687 4858.799805 C 904.799988 4873.333008 588.666687 4978.399902 544.666687 4993.866699 C 439.466675 5030.666992 379.600006 5054.666992 316.133331 5085.466797 C 211.733337 5136.133301 135.733337 5188.799805 77.73333 5250.799805 C 44.799999 5286 24.4 5312.666504 12.666667 5336 C 3.333333 5354.666504 -0 5367.466797 -0 5385.333496 L -0 5398.799805 L 7.866667 5414.666504 C 18.933332 5436.933594 24.533333 5444.933594 38.266666 5458.133301 C 92.666664 5510.399902 179.333328 5541.600098 282.266663 5545.866699 C 352.399994 5548.799805 427.866669 5539.466797 518.666687 5516.666504 C 609.866638 5493.600098 690 5460.933594 775.466675 5411.866699 C 978.799988 5295.066406 1164 5109.333008 1374.666626 4810.933594 C 1397.733276 4778.266602 1401.199951 4774 1405.333374 4772.799805 C 1414.666626 4770.133301 1497.866699 4752.266602 1549.333374 4742 C 2157.600098 4620 2802 4581.066406 3540 4621.333008 C 3625.600098 4626 3807.06665 4638.399902 3814.666748 4640.133301 C 3818 4640.933594 3818 4640.933594 3812.666748 4645.733398 C 3787.733398 4668.266602 3609.06665 4837.066406 3527.333252 4915.200195 C 3066.800049 5355.733398 2725.333252 5708.933594 2358.399902 6124.266602 C 2236.666748 6262.133301 2086.399902 6439.866699 1982.93335 6568.399902 C 1871.06665 6707.600098 1810.666626 6813.066895 1784.666626 6914.666504 C 1775.733276 6949.600098 1772.666626 6976.266602 1773.733276 7008.666504 C 1774.666626 7034.399902 1777.333374 7050.666504 1784.133301 7071.333496 C 1811.733276 7155.866699 1899.333374 7220.933105 2005.866699 7236 C 2024.666626 7238.666504 2088.133301 7238.666504 2111.333252 7236 C 2160 7230.399902 2214.533447 7217.200195 2279.733398 7195.466797 C 2525.06665 7113.600098 2771.199951 6994.533203 3070.666748 6812.933105 C 3450.266602 6582.666504 3769.199951 6338.533203 4039.199951 6071.333496 C 4183.200195 5928.799805 4293.733398 5803.200195 4402.133301 5658.666504 C 4611.866699 5379.333496 4765.600098 5083.600098 4858 4781.600098 L 4862.799805 4765.866699 L 4867.066895 4766.666992 C 4869.466797 4767.066406 4898.399902 4771.600098 4931.333496 4776.799805 C 5020.266602 4790.799805 5250.133301 4829.333008 5251.600098 4830.533203 C 5251.866699 4830.799805 5240.266602 4866.533203 5225.866699 4910.133301 C 5200.666504 4986.799805 5147.600098 5149.466797 5107.333496 5273.866699 C 5085.600098 5340.666504 5085.866699 5339.600098 5092.399902 5352.933594 C 5096.933105 5362.133301 5106.399902 5373.466797 5118 5383.466797 C 5138.266602 5401.066406 5173.066895 5421.466797 5196.666504 5429.466797 C 5209.333496 5433.733398 5224 5434.666504 5227.333496 5431.333496 C 5228.399902 5430.133301 5244.133301 5383.066406 5262.133301 5326.666504 C 5334.799805 5098.799805 5407.066895 4873.466797 5411.333496 4861.200195 C 5411.600098 4860.133301 5416.933105 4860.666992 5428.933105 4862.933594 C 5536.666504 4883.200195 5693.600098 4914.266602 5759.333496 4928.266602 C 5801.466797 4937.200195 5848 4948.666992 5882 4958.666992 C 5911.066895 4967.066406 5917.733398 4967.733398 5923.866699 4962.533203 C 5932.799805 4955.066406 5927.200195 4940.266602 5908 4920.666992 C 5884.799805 4896.799805 5858.399902 4881.600098 5821.466797 4870.666992 C 5734.399902 4844.933594 5639.333496 4824.533203 5489.600098 4799.466797 C 5460.133301 4794.399902 5435.733398 4790.133301 5435.333496 4789.733398 C 5434.666504 4789.200195 5484.266602 4638.666992 5513.200195 4553.333008 C 5651.066895 4147.600098 5768.399902 3850.93335 5915.866699 3535.199951 L 5926.799805 3511.733398 L 5934.399902 3510.266602 C 5938.533203 3509.466553 5970.533203 3502.800049 6005.333496 3495.333252 C 6222.666504 3449.06665 6507.600098 3395.06665 6723.333496 3359.333252 C 6823.866699 3342.666748 7027.866699 3311.199951 7029.066895 3312.133301 C 7029.333496 3312.266602 6987.333496 3373.866699 6935.866699 3448.93335 C 6783.066895 3671.333252 6767.066895 3696 6747.866699 3738.533447 C 6738.799805 3758.399902 6730.266602 3784.666748 6725.733398 3805.466553 C 6722.666504 3820.399902 6722.133301 3825.866699 6722.133301 3846.666748 C 6722 3868.133301 6722.266602 3871.733398 6725.066895 3880.666748 C 6735.333496 3913.600098 6766.266602 3944.533447 6811.466797 3967.199951 C 6838.399902 3980.666748 6854.533203 3984 6886.266602 3982.93335 C 6903.866699 3982.399902 6909.866699 3981.600098 6922.666504 3978.266602 C 6980 3963.333252 7029.866699 3931.466553 7124.666504 3849.333252 C 7225.200195 3762.266602 7295.866699 3681.600098 7342.533203 3600.399902 L 7352.133301 3583.600098 L 7360.399902 3582 C 7389.733398 3576.399902 7489.333496 3536 7578 3493.866699 C 7614.799805 3476.266602 7666.933105 3449.199951 7694.399902 3433.466553 C 7704.133301 3427.866699 7712.266602 3423.333252 7712.533203 3423.333252 C 7712.799805 3423.333252 7711.066895 3429.466553 7708.666504 3437.06665 C 7700 3464.266602 7693.600098 3500.133301 7690.666504 3536.533447 C 7688.799805 3562 7689.066895 3625.199951 7691.333496 3670.666748 C 7692.399902 3691.866699 7693.333496 3715.333252 7693.333496 3722.800049 L 7693.333496 3736.133301 L 7663.066895 3756.133301 C 7588.266602 3805.199951 7542.933105 3839.333252 7495.333496 3882.133301 C 7458.266602 3915.733398 7440 3936.93335 7426.533203 3962.399902 C 7406.399902 4000.800049 7404.533203 4027.866699 7419.866699 4060 C 7436.399902 4094.666748 7480.533203 4134.266602 7523.333496 4153.066406 C 7581.733398 4178.799805 7630.133301 4173.600098 7686.799805 4135.466797 C 7747.866699 4094.399902 7787.466797 4030.533447 7805.866699 3943.466553 C 7814.266602 3903.866699 7815.333496 3890.93335 7815.333496 3822.800049 L 7815.333496 3760.266602 L 7822 3755.733398 C 7842.933105 3741.466553 7914.933105 3696 8074.666504 3596.266602 C 8173.333496 3534.666748 8260 3480.533447 8267.333008 3476 C 8274.666992 3471.466553 8280.799805 3467.733398 8281.066406 3468 C 8281.200195 3468.133301 8275.066406 3477.199951 8267.200195 3488.133301 C 8231.866211 3537.600098 8204.666992 3582.93335 8178 3636.800049 C 8152.666504 3688.133301 8139.733398 3722.133301 8135.200195 3749.866699 C 8132.399902 3766.800049 8133.333496 3791.866699 8137.200195 3806.666748 C 8147.333496 3844.800049 8181.866699 3884.800049 8236 3920.93335 C 8254.666992 3933.333252 8286.799805 3950 8304 3956 C 8357.466797 3974.800049 8413.200195 3976.800049 8494.666992 3962.533447 C 8561.866211 3950.800049 8870.933594 3881.466553 9062 3835.333252 C 9345.066406 3766.800049 9674.933594 3675.600098 9925.333008 3596.666748 C 9971.599609 3582 9971.733398 3582 9987.333008 3581.199951 C 10004.533203 3580.266602 10009.733398 3578.93335 10013.200195 3574.533447 C 10020.933594 3564.800049 10016.799805 3552.666748 9999.733398 3534.533447 C 9985.066406 3519.06665 9969.333008 3507.600098 9948.666992 3497.199951 C 9930.533203 3488.133301 9918.799805 3484.666748 9905.599609 3484.666748 C 9896.799805 3484.666748 9891.733398 3486.800049 9883.733398 3493.866699 C 9876 3500.666748 9870.133789 3503.333252 9850.666992 3508.666748 C 9842.266602 3511.06665 9812.266602 3520 9784 3528.666748 C 9379.599609 3652.93335 8970.400391 3759.199951 8577.333008 3842.133301 C 8508.666992 3856.666748 8423.200195 3873.866699 8399.733398 3878 C 8343.733398 3887.733398 8305.333008 3888.666748 8272.133789 3881.06665 C 8260.799805 3878.399902 8259.599609 3877.06665 8257.466797 3865.466553 C 8251.466797 3832.666748 8261.866211 3795.199951 8294.933594 3730.133301 C 8346.933594 3628.133301 8403.599609 3547.600098 8483.599609 3462.533447 C 8502.799805 3442 8547.733398 3398.666748 8548.799805 3399.733398 C 8549.066406 3400 8545.733398 3408.533447 8541.200195 3418.800049 C 8532 3440.133301 8530.933594 3445.733398 8533.866211 3458.399902 C 8536.533203 3470 8541.866211 3477.600098 8553.066406 3486.133301 C 8566.400391 3496.266602 8580.266602 3502.533447 8589.333008 3502.533447 C 8603.466797 3502.533447 8613.466797 3497.333252 8620.266602 3486.266602 C 8621.866211 3483.600098 8627.200195 3475.866699 8632 3469.333252 C 8670.933594 3416.399902 8690 3387.866699 8698 3370.93335 C 8714.400391 3336.133301 8710.400391 3312.133301 8683.200195 3283.466553 C 8665.866211 3265.06665 8637.333008 3244.133301 8615.599609 3234 C 8596.533203 3225.06665 8582.933594 3221.733398 8565.333008 3221.600098 C 8551.466797 3221.466553 8548.799805 3221.866699 8538.400391 3225.600098 C 8517.466797 3232.93335 8477.466797 3262.93335 8424.533203 3310.93335 C 8412.266602 3322 8409.866211 3323.600098 8396.533203 3329.06665 C 8356.533203 3345.466553 8279.733398 3384.133301 8240 3407.733398 C 8233.733398 3411.333252 8213.733398 3423.600098 8195.333008 3434.666748 C 8086.533203 3500.93335 7826.933105 3656.800049 7812.133301 3664.666748 L 7808.933105 3666.266602 L 7809.866699 3639.199951 C 7812.533203 3560.266602 7821.866699 3518.266602 7848.533203 3465.333252 C 7868.266602 3426.133301 7889.600098 3397.333252 7923.200195 3364 C 7952.933105 3334.399902 7975.866699 3316.800049 8009.066895 3297.866699 C 8036 3282.533447 8080 3262.93335 8080 3266.266602 C 8080 3269.333252 8070.266602 3276.666748 8062.666504 3279.466553 C 8058.266602 3281.06665 8054.666504 3282.800049 8054.666504 3283.333252 C 8054.666504 3285.466553 8059.866699 3288.666748 8063.333496 3288.666748 C 8071.333496 3288.666748 8121.200195 3279.06665 8132.399902 3275.333252 C 8151.333496 3268.93335 8164.799805 3258.800049 8171.066895 3246 C 8173.333496 3241.466553 8174 3237.600098 8174 3229.866699 C 8174 3220.133301 8173.866699 3219.600098 8168.533203 3212.533447 C 8157.466797 3197.866699 8122.933105 3172.93335 8105.600098 3167.199951 C 8089.600098 3161.866699 8052.933105 3163.333252 8016.666504 3170.93335 C 7955.866699 3183.600098 7882.533203 3220.666748 7827.066895 3266.666748 C 7809.866699 3281.06665 7783.733398 3307.06665 7772.666504 3321.06665 L 7764.666504 3331.06665 L 7690.666504 3367.733398 C 7584.533203 3420.399902 7543.733398 3439.333252 7486 3463.06665 C 7451.733398 3477.199951 7389.200195 3500.93335 7388.399902 3500.133301 C 7388.133301 3499.866699 7390 3492.266602 7392.533203 3483.199951 C 7403.333496 3445.466553 7408 3411.733398 7408 3372.399902 C 7408 3320.266602 7401.333496 3292.533447 7382.533203 3265.199951 C 7361.866699 3235.333252 7318.533203 3203.600098 7282.666504 3192 C 7266.266602 3186.666748 7246.666504 3185.866699 7233.066895 3190 C 7217.600098 3194.666748 7201.333496 3204.800049 7188.666504 3217.866699 C 7185.866699 3220.93335 7183.066895 3223.333252 7182.533203 3223.333252 C 7182 3223.333252 7175.866699 3219.466553 7168.799805 3214.800049 C 7153.866699 3204.800049 7139.866699 3198.666748 7127.200195 3196.533447 C 7118.533203 3195.06665 7113.733398 3195.600098 7042 3205.866699 C 6700.133301 3254.666748 6354.933105 3317.733398 6030.133301 3390.533447 C 6002.266602 3396.800049 5979.333496 3401.866699 5979.200195 3401.600098 C 5978.799805 3401.06665 6028 3298.399902 6080 3191.333252 C 6116.133301 3116.799805 6237.466797 2873.866699 6278 2794.666504 C 6401.600098 2553.733398 6533.466797 2306.133301 6650.399902 2096 C 6676.133301 2049.866699 6684.666504 2035.600098 6690.533203 2029.200195 C 6838.533203 1868.666504 6930.666504 1763.866699 7038.666504 1633.333496 C 7088.266602 1573.333496 7182 1455.466797 7213.066895 1414 L 7218.533203 1406.666504 L 7318.266602 1394.266602 C 8185.200195 1286.399902 9061.333008 1202 9955.333008 1140.133301 C 10003.066406 1136.799805 10044.799805 1133.733398 10048.400391 1133.466797 C 10051.866211 1133.066895 10054.666992 1133.200195 10054.666992 1133.866699 C 10054.666992 1134.399902 10052.799805 1137.600098 10050.533203 1141.066895 C 10043.599609 1151.600098 10024.533203 1162.399902 10003.066406 1167.866699 C 9992 1170.799805 9970.266602 1174 9962 1174 C 9948.266602 1174.133301 9949.733398 1178.133301 9964.799805 1181.200195 C 9994.799805 1187.466797 10026.266602 1187.333496 10064.666992 1180.666504 C 10078 1178.399902 10098.533203 1176 10110.666992 1175.200195 C 10164.400391 1172 10195.200195 1161.866699 10218.799805 1139.600098 C 10240.400391 1119.333496 10244.266602 1108.799805 10235.733398 1094 C 10224.533203 1074.399902 10178.400391 1037.866699 10149.733398 1026 C 10129.200195 1017.466797 10128.133789 1017.333496 10041.599609 1023.333496 C 9260.133789 1077.333496 8463.333008 1155.333496 7658.666504 1256.666504 C 7564.133301 1268.666504 7372.399902 1293.466797 7325.466797 1300 C 7312.133301 1301.866699 7300 1303.333496 7298.666504 1303.333496 C 7296.799805 1303.333496 7300.666504 1297.066895 7314.533203 1278.266602 C 7396.133301 1167.066895 7483.200195 1039.866699 7600.533203 860.266602 C 7719.733398 677.733398 7915.733398 368 7948.666504 310 C 8000 219.733398 8024.399902 146.266602 8027.466797 72.666504 C 8028.266602 53.466797 8028.133301 51.466797 8025.600098 45.733398 C 8019.733398 32.399902 8004.666504 18.799805 7984.666504 8.799805 C 7968.399902 0.666504 7956.266602 -1.866699 7944 0.266602 Z M 7932.799805 104.799805 C 7922.399902 144.933105 7904.933105 187.866699 7880.666504 232.666504 C 7863.866699 263.733398 7847.333496 290.799805 7804.666504 357.333496 C 7755.733398 433.600098 7716.399902 496.399902 7637.333496 624.666504 C 7468.799805 898 7364.666504 1058.399902 7248.933105 1223.333496 C 7228.399902 1252.533203 7183.466797 1315.466797 7180.533203 1319.200195 C 7180 1319.866699 7106.266602 1330.133301 7105.866699 1329.600098 C 7105.733398 1329.466797 7110.399902 1321.200195 7116.266602 1311.333496 C 7141.600098 1268.799805 7188 1188.799805 7210 1150 C 7333.600098 931.466797 7426.399902 775.600098 7583.333496 522.666504 C 7691.866699 347.866699 7727.733398 292.666504 7768 238.666504 C 7811.733398 179.733398 7853.600098 137.733398 7896.666504 108.933105 C 7909.066895 100.666504 7936.133301 85.733398 7937.066895 86.533203 C 7937.200195 86.799805 7935.333496 94.933105 7932.799805 104.799805 Z M 4648.933105 292.933105 C 4646.933105 334 4629.333496 388.133301 4596.533203 454 C 4578.933105 489.333496 4522.533203 592.133301 4494.266602 640.666504 C 4400.933105 800.666504 4294 950.933105 4149.466797 1124.666504 C 3952.666748 1361.333496 3721.600098 1590.666504 3479.466553 1789.733398 C 3462 1804.133301 3446.399902 1816.799805 3444.93335 1817.866699 C 3442.266602 1819.733398 3442.266602 1819.600098 3445.333252 1814.666504 C 3454 1800.533203 3489.866699 1745.733398 3528.266602 1688.266602 C 3790.800049 1294.533203 4069.199951 924.799805 4375.333496 563.333496 C 4406.133301 526.799805 4422.133301 507.466797 4456.799805 464 C 4498.799805 411.333496 4514.399902 392.933105 4546 358.799805 C 4564.799805 338.533203 4597.066895 308.399902 4611.866699 297.333496 C 4622 289.733398 4645.066895 276.666504 4648.533203 276.666504 C 4649.200195 276.666504 4649.333496 283.333496 4648.933105 292.933105 Z M 7079.866699 1453.466797 C 7042.799805 1501.866699 7007.200195 1547.200195 6966 1598.666504 C 6924.266602 1650.799805 6873.466797 1712.666504 6872.533203 1712.666504 C 6872.266602 1712.666504 6874.266602 1708.933105 6877.200195 1704.266602 C 6880 1699.733398 6917.066895 1639.333496 6959.333496 1570 C 7001.733398 1500.666504 7038.399902 1440.533203 7041.066895 1436.266602 C 7043.600098 1432.133301 7046.399902 1428.666504 7047.200195 1428.533203 C 7048 1428.533203 7060.933105 1426.799805 7076 1424.799805 C 7091.066895 1422.799805 7103.466797 1421.333496 7103.733398 1421.466797 C 7104 1421.600098 7093.200195 1436 7079.866699 1453.466797 Z M 6360.933105 2370.933105 C 6360.533203 2371.600098 6346.533203 2396.533203 6329.733398 2426.666504 C 6155.600098 2737.333496 5981.200195 3066.533203 5822.266602 3384 L 5790.933105 3446.666748 L 5735.866699 3460.266602 C 5579.733398 3499.06665 5492.133301 3523.333252 5470 3534 C 5458.933105 3539.333252 5435.600098 3556.666748 5434.933105 3560.133301 C 5433.600098 3565.600098 5452.533203 3585.06665 5466.666504 3592.666748 L 5475.333496 3597.333252 L 5510 3597.333252 C 5537.866699 3597.333252 5547.066895 3596.800049 5556.666504 3594.93335 C 5589.600098 3588.399902 5631.200195 3579.333252 5680.533203 3567.866699 C 5710.399902 3560.93335 5735.333496 3555.466553 5735.600098 3555.866699 C 5736 3556.266602 5729.866699 3570 5722 3586.266602 C 5677.600098 3678.266602 5640.266602 3761.600098 5605.333496 3846.666748 C 5523.200195 4046.666748 5426.533203 4312.666992 5302.533203 4679.866699 C 5287.200195 4725.333008 5274.399902 4762.666992 5274.133301 4762.933594 C 5274 4763.200195 5255.466797 4760.266602 5233.200195 4756.666992 C 5143.200195 4741.733398 5047.333496 4726.666992 4944.133301 4711.333008 C 4910.133301 4706.266602 4882.133301 4701.866699 4882 4701.733398 C 4881.733398 4701.466797 4884.799805 4689.333008 4888.799805 4674.666992 C 4919.333496 4561.066406 4938 4456.133301 4945.600098 4354 C 4947.733398 4325.600098 4947.733398 4240.533203 4945.600098 4214.666992 C 4932.666504 4058.133301 4890.399902 3940 4808 3830.533447 C 4802.133301 3822.800049 4797.333496 3815.866699 4797.333496 3815.333252 C 4797.333496 3814.133301 4870.399902 3748.266602 5074 3566 C 5395.466797 3278.133301 5521.200195 3164.666748 5667.333496 3030.799805 C 5887.066895 2829.333496 6084.399902 2642.133301 6286.533203 2443.066895 C 6327.333496 2402.933105 6360.799805 2370.133301 6361.066895 2370.133301 C 6361.333496 2370 6361.200195 2370.399902 6360.933105 2370.933105 Z M 7291.200195 3317.600098 C 7288.533203 3372.93335 7277.866699 3417.466553 7255.066895 3470 C 7248 3486.266602 7230.266602 3521.466553 7227.866699 3523.866699 C 7225.866699 3526.133301 7221.200195 3520.399902 7215.200195 3508 C 7207.466797 3491.866699 7205.066895 3481.06665 7205.066895 3461.333252 C 7205.066895 3436.93335 7209.333496 3419.600098 7221.866699 3393.333252 C 7229.333496 3377.600098 7244.133301 3354.800049 7257.600098 3338.266602 C 7265.733398 3328.133301 7289.733398 3303.333252 7291.200195 3303.333252 C 7291.600098 3303.333252 7291.600098 3309.733398 7291.200195 3317.600098 Z M 7128.799805 3468.533447 C 7143.066895 3494.399902 7171.600098 3526.533447 7196.933105 3545.199951 C 7204.399902 3550.666748 7208.933105 3554.93335 7208.399902 3555.866699 C 7194.799805 3578.93335 7158 3626.133301 7126.666504 3660.666748 C 7057.466797 3736.800049 6940.266602 3834.399902 6881.200195 3865.199951 C 6865.733398 3873.333252 6845.333496 3882.399902 6844.533203 3881.733398 C 6843.733398 3880.800049 6851.066895 3855.466553 6856.133301 3841.733398 C 6871.200195 3800.399902 6894.133301 3760.93335 6947.333496 3685.333252 C 6971.066895 3651.600098 7006.133301 3600.266602 7071.866699 3502.93335 L 7114.933105 3439.199951 L 7119.333496 3449.199951 C 7121.733398 3454.666748 7126 3463.333252 7128.799805 3468.533447 Z M 7687.466797 3854.266602 C 7687.066895 3856 7685.866699 3862.133301 7684.666504 3868 C 7681.733398 3882.93335 7674.266602 3907.466553 7667.333496 3924.800049 C 7646.666504 3976.133301 7615.466797 4017.600098 7576.266602 4045.600098 C 7557.866699 4058.93335 7515.866699 4076.666748 7513.200195 4072.399902 C 7511.333496 4069.466553 7511.866699 4047.06665 7514 4038.666748 C 7521.600098 4008.93335 7546 3975.600098 7591.200195 3932.800049 C 7620.399902 3905.199951 7683.466797 3851.600098 7687.066895 3851.333252 C 7687.600098 3851.333252 7687.733398 3852.666748 7687.466797 3854.266602 Z M 4755.733398 3885.600098 C 4804.533203 3986.399902 4828 4099.066406 4828 4232 C 4828 4357.733398 4807.333496 4490.133301 4762.399902 4653.600098 C 4755.066895 4680.266602 4754 4683.333008 4751.466797 4683.333008 C 4749.866699 4683.333008 4723.733398 4680 4693.466797 4676 C 4454.399902 4644.133301 4214.133301 4618.266602 3994.266602 4600.399902 C 3964.399902 4598 3940.133301 4595.733398 3940.266602 4595.200195 C 3941.333252 4592.933594 4153.466797 4397.466797 4307.333496 4257.200195 C 4381.866699 4189.333008 4488.266602 4092.800049 4586 4004.666748 C 4627.066895 3967.600098 4678.933105 3920.666748 4701.333496 3900.399902 C 4723.733398 3880.133301 4742.666504 3863.466553 4743.466797 3863.466553 C 4744.266602 3863.333252 4749.733398 3873.333252 4755.733398 3885.600098 Z M 3940 4650.666992 C 4160.933105 4670.799805 4376.533203 4696.133301 4624 4730.799805 C 4690.933105 4740.133301 4733.733398 4746.266602 4734.399902 4746.666992 C 4734.533203 4746.799805 4728.799805 4764.533203 4721.466797 4786.133301 C 4593.733398 5165.200195 4367.600098 5536.799805 4056 5879.333496 C 3976.800049 5966.399902 3867.866699 6075.066406 3774 6160.799805 C 3602.133301 6317.600098 3403.199951 6473.066406 3186 6620.133301 C 2876.93335 6829.466797 2587.466553 6988.799805 2333.333252 7089.333496 C 2285.333252 7108.266602 2250.800049 7120.799805 2194.666748 7139.466797 C 2123.333252 7163.066895 2087.600098 7172.666504 2044 7179.600098 C 2027.466675 7182.133301 2019.733276 7182.666504 1991.333374 7182.533203 C 1962 7182.533203 1956.400024 7182.266602 1944.533325 7179.600098 C 1914.266724 7173.066895 1893.466675 7163.600098 1880.533325 7150.399902 C 1852.133301 7121.733398 1841.333374 7057.866699 1852.800049 6987.333496 C 1865.06665 6912.266602 1903.199951 6825.066895 1964.666626 6731.866699 C 1994.400024 6686.666504 2016.800049 6656.266602 2092.533447 6558.666504 C 2344.533447 6233.733398 2523.600098 6022.133301 2788 5736.666504 C 3073.866699 5428 3393.733398 5107.733398 3758 4765.200195 C 3794 4731.466797 3837.199951 4690.799805 3854 4674.933594 C 3870.93335 4659.066406 3885.600098 4646.133301 3886.666748 4646 C 3887.866699 4646 3911.866699 4648.133301 3940 4650.666992 Z M 1147.06665 4839.600098 C 1104.666626 4895.466797 1036.93335 4977.066406 990.93335 5027.733398 C 966.666687 5054.399902 904.133362 5117.333008 880 5139.466797 C 717.06665 5288 549.733337 5379.733398 362.399994 5423.200195 C 296.933319 5438.266602 237.199997 5445.333496 160 5446.799805 C 120.133331 5447.600098 94.533333 5446.533203 87.333336 5443.866699 C 82.400002 5442 79.866669 5416.666504 82.533333 5398 C 88 5360.799805 112 5311.466797 144.53334 5270.666504 C 159.199997 5252.266602 189.066666 5222.799805 210.666672 5205.600098 C 283.200012 5147.333008 397.333344 5089.866699 547.06665 5036.133301 C 610.400024 5013.333008 956.533325 4897.066406 1027.333374 4874.799805 C 1057.733276 4865.200195 1146.266724 4838.266602 1147.866699 4838 C 1148.133301 4838 1147.733276 4838.799805 1147.06665 4839.600098 Z"/>
        <path id="path1" fill="#000000" stroke="none" d="M 4133.066895 2751.333496 C 4131.733398 2752.133301 4127.866699 2756.533203 4124.399902 2761.066895 C 4095.06665 2799.600098 4056.399902 2845.600098 4052.666748 2846.533203 C 4049.466553 2847.333496 4044 2858 4044 2863.600098 C 4044 2874.133301 4061.199951 2893.333496 4084.666748 2908.933105 C 4099.866699 2919.066895 4109.200195 2923.600098 4120.666504 2926.666504 C 4132.933105 2929.866699 4135.733398 2929.466797 4141.333496 2923.466797 C 4147.600098 2916.933105 4176.799805 2877.200195 4201.200195 2842 C 4218.933105 2816.533203 4220.266602 2814.399902 4219.600098 2809.733398 C 4217.600098 2795.066895 4183.733398 2765.600098 4156.933105 2755.333496 C 4145.200195 2750.666504 4136.399902 2749.333496 4133.066895 2751.333496 Z"/>
    </g>
</svg>
