<svg xmlns="http://www.w3.org/2000/svg" viewBox="0 0 183.25 183.25"><defs><style>.cls-1{fill:#fff;}</style></defs><title>Simbolo 2</title><g id="Layer_2" data-name="Layer 2"><g id="Layer_7" data-name="Layer 7"><rect class="cls-1" x="-7.91" y="60.74" width="82.46" height="11.78" transform="translate(-37.36 43.08) rotate(-45)"/><polygon class="cls-1" points="149.93 58.31 141.6 49.98 49.98 141.6 49.98 141.6 49.98 141.6 91.62 183.25 99.95 174.92 66.64 141.6 149.93 58.31"/><polygon class="cls-1" points="166.59 74.97 158.26 66.64 91.62 133.27 83.29 141.6 91.62 149.93 108.28 166.59 116.61 158.26 99.95 141.6 166.59 74.97"/><rect class="cls-1" x="108.7" y="110.72" width="82.46" height="11.78" transform="translate(-38.54 140.17) rotate(-45)"/><polygon class="cls-1" points="74.97 16.66 66.64 24.99 83.29 41.65 16.66 108.28 24.99 116.61 99.95 41.65 74.97 16.66"/><polygon class="cls-1" points="124.94 49.98 133.27 41.65 91.62 0 83.29 8.33 116.61 41.65 33.32 124.94 41.65 133.27 124.94 49.98 124.94 49.98"/></g></g></svg>